PERFORMER "ArtistLame"
TITLE "AlbunJn"
TITame"
FILEREM GENRE "Modern Rock"
REM DATE 20" W0VE
  TRACK 01 AUDI
REM COMMENT "ExactAudioCopy v0.95b4"
PERFORMER "Test for flacon"-
TFILE "short.wav" WAVE
  TRACK 01
    TITLE "Short track 1"
    INDEX 00 00:00:00
 "  INDEX 01 00:00:33
  TRACK 02 AUDIO
    TITLE "Short track 2"
    INDEX 01 00:46:00
  TRACK 03 AUDIO
wav" WAVE
  TRACK 01 AUDIO
   Ton"
TITShort track 3"
    INDEX 00 01:22:22
    INDEX 01 01:25:10
  TRACK 04 AUDIO
    Ton"
TITLE "Short fi
